# xmcd CD database file
#
# Track frame offsets:
#	150
#	18892
#	33606
#	50010
#	73315
#	92659
#	111204
#	125439
#	140703
#	158635
#	174747
#	214960
#
# Disc length: 3211 seconds
#
# Revision: 1
# Processed by: cddbd v1.5.1PL0 Copyright (c) Steve Scherf et al.
# Submitted via: CDex 1.51
#
DISCID=b20c890c
DTITLE=Luc Baiwir - Sweet and Light Moments
DYEAR=2003
DGENRE=New Age
TTITLE0=The dolphins's smile
TTITLE1=Qi-Qi
TTITLE2=L'instant blue
TTITLE3=Stareso
TTITLE4=Out of time
TTITLE5=Theme for Huguette
TTITLE6=The lark ascending
TTITLE7=Planète ocean
TTITLE8=Nausicaa
TTITLE9=Heart waves
TTITLE10=Diving dream
TTITLE11=shooting star
EXTD=YEAR: 2003
EXTT0=
EXTT1=
EXTT2=
EXTT3=
EXTT4=
EXTT5=
EXTT6=
EXTT7=
EXTT8=
EXTT9=
EXTT10=
EXTT11=
PLAYORDER=
